<?xml version="1.0" encoding="utf-8"?>
<!-- Generator: Adobe Illustrator 25.0.1, SVG Export Plug-In . SVG Version: 6.00 Build 0)  -->
<svg version="1.1" id="Layer_1" xmlns="http://www.w3.org/2000/svg" xmlns:xlink="http://www.w3.org/1999/xlink" x="0px" y="0px"
	 viewBox="0 0 1700 500" style="enable-background:new 0 0 1700 500;" xml:space="preserve">
<style type="text/css">
	.st0{fill:#EAF02E;}
	.st1{stroke:#000000;stroke-miterlimit:10;}
	.st2{fill:#0098CA;}
	.st3{fill:#6CA943;}
	.st4{fill:#00B2DA;}
	.st5{fill:url(#SVGID_1_);}
	.st6{fill:#00A38A;}
	.st7{fill:#93C43E;}
	.st8{fill:url(#SVGID_2_);}
	.st9{fill:#BDCB31;}
	.st10{fill:#CFD429;}
</style>
<g>
	<g>
		<path d="M718.0999756,271.2999878c0,10.1000061-8.4000244,15.6000061-23.5,15.6000061
			c-8.0999756,0-17.2000122-1.7999878-24.2000122-4.8999939l4.7000122-12.7999878
			C679.5,271.2000122,689.8999634,274,694.6999512,274c5.0999756,0,6.7999878-1.2999878,6.7999878-3.2999878
			c0-2.3999939-3.5999756-3.2999878-9.2000122-4.6000061c-9.0999756-2.2000122-21-5.7000122-21-16.8999939
			c0-9.5,7.7999878-15.5,23.4000244-15.5c7.0999756,0,15.2999878,1.3000031,21.5999756,4.1000061l-4.9000244,12.5
			c-5.4000244-2.1999969-12.5999756-3.5-16.5999756-3.5c-5.2000122,0-7.0999756,0.8999939-7.0999756,2.6000061
			s4.0999756,2.8999939,8.9000244,4.1999969C706.2000122,256.6000061,718.0999756,259.8999939,718.0999756,271.2999878z"/>
		<path d="M775.0999756,234.8000031V249h-16.2000122v36.8999939h-15.7000122V249H727v-14.1999969H775.0999756z"/>
		<path d="M835.5,285.8999939h-16.0999756L816,276.6000061h-20.2999878l-3.4000244,9.2999878h-16.0999756l20.5-51.1000061H815
			L835.5,285.8999939z M811.5999756,264.7000122l-5.7000122-15.3999939l-5.7000122,15.3999939H811.5999756z"/>
		<path d="M893.7000122,234.8000031v51.0999908h-12.5l-20.9000244-25.5v25.5h-15.7000122v-51.1000061h12.5l21,25.3999939
			v-25.3999939h15.6000366V234.8000031z"/>
		<path d="M960.0999756,260.2999878c0,14.1000061-10.5,25.6000061-27.7999878,25.6000061H908.5v-51.1000061h23.7999878
			C949.5999756,234.8000031,960.0999756,246.1999969,960.0999756,260.2999878z M943.9000244,260.2999878
			c0-6.5-4-11.8000031-12.5999756-11.8000031h-7.2000122v23.5999908h7.2000122
			C940,272.1000061,943.9000244,266.7999878,943.9000244,260.2999878z"/>
		<path d="M1022.2999878,285.8999939h-16.0999756l-3.4000244-9.2999878H982.5l-3.4000244,9.2999878H963l20.5-51.1000061h18.2999878
			L1022.2999878,285.8999939z M998.4000244,264.7000122l-5.7000122-15.3999939L987,264.7000122H998.4000244z"/>
		<path d="M1083.6999512,285.8999939h-17.8000488l-10.4000244-13.7999878h-8.1999512V286h-15.6999512v-51.1000061H1060.5
			c12.0999756,0,19.9000244,8.3999939,19.9000244,18.6000061c0,6.6000061-4,11.8999939-9.8000488,15.1000061
			L1083.6999512,285.8999939z M1064.4000244,253.3000031c0-3-2.0999756-5.3999939-6.4000244-5.3999939h-10.8000488v10.8000031H1058
			C1062.4000244,258.6000061,1064.4000244,256.2000122,1064.4000244,253.3000031z"/>
		<path d="M1145.0999756,260.2999878c0,14.1000061-10.5,25.6000061-27.8000488,25.6000061h-23.8000488v-51.1000061h23.8000488
			C1134.5999756,234.8000031,1145.0999756,246.1999969,1145.0999756,260.2999878z M1128.9000244,260.2999878
			c0-6.5-4-11.8000031-12.5999756-11.8000031h-7.1999512v23.5999908h7.1999512
			C1125,272.1000061,1128.9000244,266.7999878,1128.9000244,260.2999878z"/>
		<path d="M1200,271.2999878c0,10.1000061-8.4000244,15.6000061-23.5,15.6000061
			c-8.0999756,0-17.1999512-1.7999878-24.1999512-4.8999939L1157,269.2000122
			c4.4000244,2,14.8000488,4.7999878,19.5999756,4.7999878c5.0999756,0,6.8000488-1.2999878,6.8000488-3.2999878
			c0-2.3999939-3.5999756-3.2999878-9.1999512-4.6000061c-9.0999756-2.2000122-21-5.7000122-21-16.8999939
			c0-9.5,7.8000488-15.5,23.4000244-15.5c7.0999756,0,15.3000488,1.3000031,21.5999756,4.1000061l-4.9000244,12.5
			c-5.4000244-2.1999969-12.5999756-3.5-16.5999756-3.5c-5.1999512,0-7.0999756,0.8999939-7.0999756,2.6000061
			s4.0999756,2.8999939,8.9000244,4.1999969C1187.9000244,256.6000061,1200,259.8999939,1200,271.2999878z"/>
		<path d="M1271.4000244,248.5v8.1000061H1294.5v13.7000122h-23.0999756v15.6000061h-15.6999512v-51.1000061h44.4000244v13.6999969
			L1271.4000244,248.5L1271.4000244,248.5z"/>
		<path d="M1362.1999512,260.2000122c0,14.8999939-12.0999756,27.1000061-28.1999512,27.1000061
			s-28.1999512-12.2000122-28.1999512-27.1000061s12.0999756-27,28.1999512-27S1362.1999512,245.3000031,1362.1999512,260.2000122z
			 M1346.5999756,260.2000122c0-6.6000061-5.1999512-12.5-12.5999756-12.5s-12.5999756,5.8999939-12.5999756,12.5
			S1326.5999756,272.8000183,1334,272.8000183C1341.4000244,272.7000122,1346.5999756,266.7000122,1346.5999756,260.2000122z"/>
		<path d="M1425.5999756,285.8999939h-17.8000488L1397.3999023,272h-8.1999512v13.8999939H1373.5v-51.1000061h28.9000244
			c12.0999756,0,19.9000244,8.3999939,19.9000244,18.6000061c0,6.6000061-4,11.8999939-9.8000488,15.1000061
			L1425.5999756,285.8999939z M1406.3000488,253.3000031c0-3-2.0999756-5.3999939-6.4000244-5.3999939h-10.8000488v10.8000031
			h10.8000488C1404.3000488,258.6000061,1406.3000488,256.2000122,1406.3000488,253.3000031z"/>
		<path d="M1485.9000244,234.6999969V262c0,15-9.5999756,25.3999939-25.5999756,25.3999939S1434.7000732,277,1434.7000732,262
			v-27.3000031h15.6999512V262.5c0,5.2999878,3.1999512,10.6000061,9.9000244,10.6000061s9.9000244-5.2999878,9.9000244-10.6000061
			v-27.8000031H1485.9000244z"/>
		<path d="M1559.6999512,234.8000031v51.0999908h-15.4000244v-25.7999878L1534.0999756,275.5h-8l-10.1999512-15.3999939v25.7999878
			H1500.5v-51.1000061h14.3000488L1530.2000732,258l15.4000244-23.1999969H1559.6999512z"/>
	</g>
</g>
<g>
	<path d="M672.9000244,185.3000031V63c0-2.5,1.9000244-4.4000015,4.5-4.4000015h17.9000244
		c1.9000244,0,3.5,1.0999985,4.2999878,2.9000015l41.7999878,114.1999969L783.2000122,61.5
		c0.7000122-1.7999992,2.4000244-2.9000015,4.2999878-2.9000015h17.9000244c2.5999756,0,4.5,1.7999992,4.5,4.4000015v122.1999969
		c0,2.5-1.9000244,4.3999939-4.5,4.3999939h-6.5999756c-2.5999756,0-4.5-1.8000031-4.5-4.3999939V72.5L752.500061,186.6999969
		c-0.7000122,1.8000031-2.4000244,2.8999939-4.2999878,2.8999939H734.500061c-1.9000244,0-3.5-1.1000061-4.2999878-2.8999939
		L688.5,72.5v112.6999969c0,2.5-1.9000244,4.3999939-4.5,4.3999939h-6.5999756
		C674.7000122,189.6000061,672.9000244,187.8000031,672.9000244,185.3000031z"/>
	<path d="M880.9000244,178.8999939c12.0999756,0,19.4000244-4.8999939,23.4000244-8.5
		c1.2999878-1.1000061,3.0999756-1.6000061,4.7999878-0.8999939l5.5999756,2
		c3.0999756,1.3000031,4.0999756,3.8999939,1.9000244,6.1999969C910.2000122,184.3000031,898.7000122,191.5,880.9000244,191.5
		C851.3000488,191.5,834.5,171.8000031,834.5,145c0-26.9000015,16.7999878-46.5,44.5-46.5
		c24.7999878,0,44.7999878,15.3000031,44.2000122,48.6000061c0,2.3000031-1.9000244,4-4.2999878,4H850
		C852.0999756,167.1999969,861.7999878,178.8999939,880.9000244,178.8999939z M879,110.8000031
		c-16.7999878,0-26.9000244,11.6999969-28.9000244,28.1999969H907C907,122.8000031,896.0999756,110.8000031,879,110.8000031z"/>
	<path d="M952.5,150.5v-37.8000031h-14c-2.5999756,0-4.5-1.8000031-4.5-4.4000015v-3.9000015
		c0-2.5,1.9000244-4.4000015,4.5-4.4000015h14V78.4000015C952.5,75.9000015,954.4000244,74,957,74h6.4000244
		c2.5999756,0,4.5,1.8000031,4.5,4.4000015V100h22.5c2.5999756,0,4.5,1.8000031,4.5,4.4000015v3.9000015
		c0,2.5-1.9000244,4.4000015-4.5,4.4000015h-22.5V150.5c0,19.5,1.7000122,28.3999939,14,28.3999939
		c2.2000122,0,4.5-0.1999969,6.4000244-0.5c2.5999756-0.3999939,4.7999878,0.6999969,5.5999756,3.1999969l1.0999756,4
		c0.7000122,2.3000031-0.4000244,4.3999939-2.7999878,4.8999939C989.7999878,190.8999786,986.5,191.3999786,982,191.3999786
		C957.7000122,191.3999939,952.5,177.8000031,952.5,150.5z"/>
	<path d="M1076.6999512,185.3000031v-10C1072.5999756,184.1999969,1059.3999023,191.5,1045.3999023,191.5
		c-19.9000244,0-35.2999878-8.5-35.2999878-28c0-30.6999969,40.7000122-30,66.6000366-28.6999969
		c-0.4000244-14-4.0999756-23.8000031-26-23.8000031c-10.0999756,0-19.1999512,3.1999969-25.8000488,6.5999985
		c-0.6999512,0.4000015-1.7000122,0.5-2.4000244,0.5c-1.5,0-2.7999878-0.5-3.7999878-2L1016.2998657,112.5
		c-1.5-2.1999969-1.0999756-4.5999985,1.2999878-6c6.9000244-3.4000015,18.0999756-8,33.0999756-8
		c34.3000488,0,41.1999512,17.4000015,41.1999512,41v46c0,2.5-1.9000244,4.3999939-4.5,4.3999939h-6.4000244
		C1078.5999756,189.6000061,1076.6999512,187.8000031,1076.6999512,185.3000031z M1025.0999756,163.3999939
		c0,9.6000061,7.5,15.3999939,22.4000244,15.3999939c19.9000244,0,29.3000488-11.1000061,29.3000488-25.6000061v-7.1000061
		C1054.6999512,145.6000061,1025.0999756,144.3000031,1025.0999756,163.3999939z"/>
	<path d="M1140,186.8999939l-33.0999756-80.6999969c-1.5-3.5999985,0.1999512-6,4.0999756-6h6.6999512
		c1.6999512,0,3.3000488,1.0999985,4.0999756,2.6999969l26.9000244,67.3000031l26.9000244-67.3000031
		c0.6999512-1.5999985,2.4000244-2.6999969,4.0999756-2.6999969h6.6999512c4,0,5.5999756,2.3000031,4.0999756,6
		l-33.0999756,80.6999969c-0.6999512,1.6000061-2.4000244,2.6999969-4.0999756,2.6999969h-9.3000488
		C1142.4000244,189.6000061,1140.6999512,188.5,1140,186.8999939z"/>
	<path d="M1248.1999512,178.8999939c12.0999756,0,19.4000244-4.8999939,23.4000244-8.5
		c1.3000488-1.1000061,3.0999756-1.6000061,4.8000488-0.8999939L1282,171.5
		c3.0999756,1.3000031,4.0999756,3.8999939,1.9000244,6.1999969C1277.5,184.3000031,1266,191.5,1248.2000732,191.5
		c-29.5999756,0-46.4000244-19.6999969-46.4000244-46.5c0-26.9000015,16.8000488-46.5,44.5-46.5
		c24.8000488,0,44.8000488,15.3000031,44.1999512,48.6000061c0,2.3000031-1.9000244,4-4.3000488,4h-68.9000244
		C1219.4000244,167.1999969,1229.0999756,178.8999939,1248.1999512,178.8999939z M1246.3000488,110.8000031
		C1229.5,110.8000031,1219.4000244,122.5,1217.4000244,139h56.9000244
		C1274.3000488,122.8000031,1263.5,110.8000031,1246.3000488,110.8000031z"/>
	<path d="M1314.4000244,185.3000031v-80.6999969c0-2.5,1.9000244-4.4000015,4.5-4.4000015h6.4000244
		c2.8000488,0,4.5,1.5999985,4.5,4.4000015l0.1999512,10c0.1999512-0.5,5.9000244-16.1999969,24.5999756-16.1999969
		c3.8000488,0,6.5999756,0.4000015,9,0.9000015c1.9000244,0.4000015,3.0999756,2,3.0999756,4v3.1999969
		c0,3.4000015-2.1999512,5.0999985-5.5999756,4.8000031c-2.0999756-0.1999969-4.3000488-0.4000015-6.6999512-0.4000015
		c-15.9000244,0-24.5999756,11.6999969-24.5999756,29.1000061v45.3000031c0,2.5-1.9000244,4.3999939-4.5,4.3999939h-6.4000244
		C1316.3000488,189.6000061,1314.4000244,187.8000031,1314.4000244,185.3000031z"/>
	<path d="M1383.8000488,171.3000031L1390,169.5c1.6999512-0.5,3.8000488,0.1999969,5,1.3999939
		c4.3000488,4.3999939,11.4000244,8,21.5999756,8c14,0,22.6999512-5.5,22.6999512-13.5
		c0-9.3000031-7.3000488-12.3999939-23.9000244-15.8000031c-24.4000244-4.6000061-33.4000244-13.1000061-33.4000244-26.5999985
		c0-13.3000031,10.4000244-24.7000046,34.5-24.7000046c18.6999512,0,27.5999756,7.0999985,32.1999512,13.5
		c1.9000244,2.5,0.6999512,4.9000015-2.1999512,5.8000031l-5.9000244,1.8000031c-1.6999512,0.5-3.8000488-0.1999969-5-1.4000015
		c-3-3.0999985-8.5999756-7.0999985-19-7.0999985c-12.3000488,0-19.1999512,4.8000031-19.1999512,12.1999969
		c0,6.6999969,5.5999756,10.1000061,20.6999512,13.5c25.4000244,4.8000031,36.5999756,11.6999969,36.5999756,28.8999939
		c0,16.8999939-15.9000244,26-38.0999756,26c-16.3000488,0-28.9000244-5.3000031-35.3000488-14.5
		C1379.6999512,174.5,1380.8000488,172.1999969,1383.8000488,171.3000031z"/>
	<path d="M1519.1999512,178.8999939c12.0999756,0,19.4000244-4.8999939,23.4000244-8.5
		c1.3000488-1.1000061,3.0999756-1.6000061,4.8000488-0.8999939L1553,171.5
		c3.0999756,1.3000031,4.0999756,3.8999939,1.9000244,6.1999969C1548.5,184.3000031,1537,191.5,1519.2000732,191.5
		c-29.5999756,0-46.4000244-19.6999969-46.4000244-46.5c0-26.9000015,16.8000488-46.5,44.5-46.5
		c24.8000488,0,44.8000488,15.3000031,44.1999512,48.6000061c0,2.3000031-1.9000244,4-4.3000488,4h-68.9000244
		C1490.5,167.1999969,1500.1999512,178.8999939,1519.1999512,178.8999939z M1517.3000488,110.8000031
		C1500.5,110.8000031,1490.4000244,122.5,1488.4000244,139h56.9000244
		C1545.4000244,122.8000031,1534.5999756,110.8000031,1517.3000488,110.8000031z"/>
</g>
<g>
	<g>
		<path d="M1601.0999756,234.6999969v5.1999969h-5.9000244v13.5H1589.5v-13.5h-5.9000244v-5.1999969H1601.0999756z"/>
		<path d="M1627,234.6999969v18.6999969h-5.6999512V244L1617.5,249.6999969h-3L1610.6999512,244v9.3999939H1605v-18.6999969
			h5.1999512l5.6999512,8.3999939l5.6999512-8.3999939H1627z"/>
	</g>
</g>
<g id="Isolation_Mode">
</g>
<path class="st0" d="M1546.8000488,353.8999939H839.5c-32.2999878,8.1000061-43.9000244,19.5-71.5999756,46.5
	c-27.9000244,27.2000122-48.2999878,53.7000122-82,53.7000122h707.2999268c32.3000488-8.1000061,43.9000244-19.5,71.5999756-46.5
	C1492.5999756,380.3999939,1513,353.8999939,1546.8000488,353.8999939z"/>
<g>
	<path class="st1" d="M889.7000122,398.7000122C889.7000122,408,883.5,415.5,871.9000244,415.5h-9.2999878v10.6000061h-13.2000122
		v-44h22.4000244C883.5,382.1000061,889.7000122,389.5,889.7000122,398.7000122z M876.5999756,398.7000122
		c0-2.8999939-2.2000122-5.2000122-5.5-5.2000122h-8.4000244V404h8.4000244
		C874.4000244,404,876.5999756,401.6000061,876.5999756,398.7000122z"/>
	<path class="st1" d="M946,426.1000061h-13.5l-2.7999878-7.8999939h-17l-2.9000244,7.8999939h-13.5l17.2000122-44h15.4000244
		L946,426.1000061z M926,407.7999878l-4.7999878-13.2000122l-4.7999878,13.2000122H926z"/>
	<path class="st1" d="M1003,426.1000061h-14.9000244l-8.7999878-12h-6.9000244v12h-13.2000122v-44h24.2999878
		c10.0999756,0,16.7999878,7.2000122,16.7999878,16c0,5.7000122-3.4000244,10.2000122-8.2999878,13L1003,426.1000061z
		 M986.9000244,398c0-2.5-1.7999878-4.7000122-5.4000244-4.7000122h-9.0999756v9.2999878H981.5
		C985.0999756,402.6000061,986.9000244,400.5,986.9000244,398z"/>
	<path class="st1" d="M1052.6999512,382.1000061v12.2000122h-13.5999756v31.7999878H1026v-31.7999878h-13.5999756v-12.2000122
		H1052.6999512z"/>
	<path class="st1" d="M1068.4000244,426.1000061v-44h13.1999512v44H1068.4000244z"/>
	<path class="st1" d="M1129.1999512,411.7999878L1137.5,420.3999939
		c-4.1999512,4.2000122-10.0999756,6.8999939-16.9000244,6.8999939c-13.5,0-23.6999512-10.5-23.6999512-23.3999939
		s10.1999512-23.2999878,23.6999512-23.2999878c6.6999512,0,12.6999512,2.6000061,16.9000244,6.7999878L1129.1999512,396
		c-2-1.7999878-4.5999756-2.8999939-7.8000488-2.8999939c-6.9000244,0-11.3000488,5.2000122-11.3000488,10.7999878
		c0,5.6000061,4.4000244,10.7999878,11.3000488,10.7999878
		C1124.5999756,414.7999878,1127.1999512,413.6000061,1129.1999512,411.7999878z"/>
	<path class="st1" d="M1153.0999756,426.1000061v-44h13.1999512v44H1153.0999756z"/>
	<path class="st1" d="M1225.0999756,398.7000122c0,9.2999878-6.1999512,16.7999878-17.8000488,16.7999878h-9.3000488v10.6000061
		h-13.1999512v-44h22.4000244C1218.8000488,382.1000061,1225.0999756,389.5,1225.0999756,398.7000122z M1212,398.7000122
		c0-2.8999939-2.1999512-5.2000122-5.5-5.2000122h-8.4000244V404H1206.5C1209.6999512,404,1212,401.6000061,1212,398.7000122z"/>
	<path class="st1" d="M1281.3000488,426.1000061h-13.5L1265,418.2000122h-17l-2.9000244,7.8999939h-13.5l17.1999512-44h15.4000244
		L1281.3000488,426.1000061z M1261.3000488,407.7999878L1256.5,394.5999756l-4.8000488,13.2000122H1261.3000488z"/>
	<path class="st1" d="M1335.6999512,382.1000061v44h-10.5l-17.5999756-22v22h-13.1999512v-44h10.5L1322.5,404v-21.8999939
		H1335.6999512z"/>
	<path class="st1" d="M1390.9000244,382.1000061v12.2000122h-13.5999756v31.7999878h-13.1999512v-31.7999878h-13.5999756
		v-12.2000122H1390.9000244z"/>
</g>
<path class="st2" d="M653.2000122,454.1000061c0,0,7.5-18.5,23.5999756-53.7000122
	c15.7999878-34.3999939,32.9000244-46.5,62.4000244-46.5s100.2999878,0,100.2999878,0
	c-32.2999878,8.1000061-43.9000244,19.5-71.5999756,46.5c-27.9000244,27.2000122-48.2999878,53.7000122-82,53.7000122
	S653.2000122,454.1000061,653.2000122,454.1000061z"/>
<path class="st3" d="M1579.4000244,353.8999939c0,0-7.5,18.5-23.5999756,53.7000122
	c-15.8000488,34.3999939-32.9000244,46.5-62.4000244,46.5s-100.3000488,0-100.3000488,0
	c32.3000488-8.1000061,43.9000244-19.5,71.5999756-46.5c27.9000244-27.2000122,48.3000488-53.7000122,82-53.7000122
	S1579.4000244,353.8999939,1579.4000244,353.8999939z"/>
<g>
	<path class="st2" d="M391.2521057,438.2123108l0.0475769,0.0475769
		c-10.5697021,9.8719482-37.5767517,12.0683289-73.2663574,12.1000671c-0.2457886,0-0.4836731,0-0.7294922,0
		c-35.6975098-0.0317383-62.7045898-2.2281189-73.2742767-12.1000671l0.0475616-0.0475769
		c8.6270447,5.4474182,16.0091858,3.2668762,27.1498108-4.131134c12.734375-8.4605103,28.6721802-21.1631775,46.4416504-36.5856018
		c17.7615356,15.4224243,33.6993408,28.1250916,46.4337463,36.5856018
		C375.2429199,441.479187,382.625061,443.659729,391.2521057,438.2123108z"/>
	<path class="st4" d="M449.5876465,268.9781799c-2.0298767,13.0039673-4.1470032,24.6758423-6.2323914,34.0006409
		c-7.0491028,31.5267334-26.586792,104.404541-44.2373352,127.7641296
		c-2.4897766,2.4025879-5.0271606,4.8527222-7.6358643,7.3504333c-0.0555115,0.0555115-0.1189575,0.1110229-0.182373,0.1665039
		l-0.0475769-0.0475769c-8.6270447,5.4474182-16.0091858,3.2668762-27.1497803-4.131134
		c-12.7344055-8.4605103-28.6722107-21.1631775-46.4337463-36.5856018
		C357.6796265,362.7575073,406.9361877,314.1749268,449.5876465,268.9781799z"/>
	
		<linearGradient id="SVGID_1_" gradientUnits="userSpaceOnUse" x1="197.6981964" y1="929.9691162" x2="294.9577332" y2="944.2073364" gradientTransform="matrix(1 0 0 1 0 -578)">
		<stop  offset="0.1802242" style="stop-color:#077E9A"/>
		<stop  offset="0.3839651" style="stop-color:#0393B3"/>
		<stop  offset="0.6139189" style="stop-color:#00A9CE"/>
		<stop  offset="0.7402233" style="stop-color:#00B2DA"/>
	</linearGradient>
	<path class="st5" d="M244.0771179,438.2123108l-0.0475616,0.0475769c-0.063446-0.055481-0.1268768-0.1109924-0.182373-0.1665039
		c-2.6007996-2.4897766-5.1302338-4.9320068-7.6120911-7.3266296
		c-17.6584625-23.3120117-37.1961517-96.2453308-44.2611237-127.7879333
		c-2.0853882-9.3327332-4.2024994-21.0046082-6.2323914-34.01651
		c42.6435394,45.1967773,91.9080505,93.787262,131.927002,128.5332642
		c-17.7694702,15.4224243-33.7072754,28.1250916-46.4416504,36.5856018
		C260.0863037,441.479187,252.7041626,443.659729,244.0771179,438.2123108z"/>
	<path class="st6" d="M540.2825317,136.2503204c1.1735229,33.0491486-3.6316528,126.2179413-22.6063232,154.6760406
		c-37.9415283,56.9161987-64.8137817,87.8878784-118.5582886,139.8165894
		c17.6505432-23.3595886,37.1882324-96.2373962,44.2373352-127.7641296
		c2.0853882-9.3247986,4.2025146-20.9966736,6.2323914-34.0006409
		c28.6246338-30.3373566,54.2757874-59.1522827,72.1483154-81.2273254
		c12.9564209-16.0012512,18.5465698-35.3803558,18.4276123-51.4529572c-0.0158691-2.0536804-0.0792847-4.0677185-0.182373-6.042099
		C540.1159668,132.3173981,540.2190552,134.3314362,540.2825317,136.2503204z"/>
	<path class="st6" d="M95.1656647,136.2978973c-0.1189346,16.0726013,5.4711914,35.4517059,18.427597,51.4529572
		c17.8725433,22.0750427,43.5157623,50.8820496,72.1483154,81.2114563c2.029892,13.0119019,4.1470032,24.6837769,6.2323914,34.01651
		c7.0649719,31.5426025,26.6026611,104.4759216,44.2611237,127.7879333
		c-53.760376-51.9445801-80.640564-82.9162598-118.5820541-139.8403931
		C98.6862564,262.4682617,93.8811264,169.299469,95.04673,136.2503204c0.0713577-1.9188843,0.1665115-3.9249878,0.3013077-5.9865875
		C95.244957,132.2301788,95.1815262,134.2442169,95.1656647,136.2978973z"/>
	<path class="st3" d="M386.0029297,245.1586761c-9.2772217,9.76091-33.0967102,12.8374786-68.3343506,13.2259979
		c-35.2376099-0.3885193-59.065033-3.4650879-68.3422852-13.2259979l0.0396423-0.031723
		c10.5538635,11.2833557,39.6145935-17.7932434,68.3026428-51.7384033
		c28.6880493,33.9451599,57.7408752,63.021759,68.2947083,51.7384033L386.0029297,245.1586761z"/>
	<path class="st7" d="M385.9632874,245.1269531c-10.553833,11.2833557-39.6066589-17.7932434-68.2947083-51.7384033
		c20.1799622-23.875,40.1775513-50.1446228,53.4194031-66.4868317
		c34.8094482-42.9369278,49.700592-59.7707443,64.0446472-69.8012543c0.0634155-0.0475769,0.1268616-0.0872192,0.1902771-0.1268692
		c20.5526428-10.1256638,26.9039917,35.5072174,27.5700378,62.9424515
		c0.2140808,8.7935486-0.1109924,20.2196045-0.8404846,33.1839447
		c-27.3480225,33.9372253-47.1870422,58.3831329-75.4310608,91.37677c-0.1982117,0.22995-0.4043884,0.4598999-0.6184692,0.6819153
		L385.9632874,245.1269531z"/>
	
		<linearGradient id="SVGID_2_" gradientUnits="userSpaceOnUse" x1="173.0640411" y1="718.8691406" x2="359.8952942" y2="757.4336548" gradientTransform="matrix(1 0 0 1 0 -578)">
		<stop  offset="0.0297948" style="stop-color:#71953D"/>
		<stop  offset="0.0491909" style="stop-color:#759A3D"/>
		<stop  offset="0.1223859" style="stop-color:#81AB3E"/>
		<stop  offset="0.2026286" style="stop-color:#8AB83E"/>
		<stop  offset="0.2944475" style="stop-color:#90C13E"/>
		<stop  offset="0.4236494" style="stop-color:#93C43E"/>
	</linearGradient>
	<path class="st8" d="M249.3659363,245.1269531l-0.0396423,0.031723c-0.2140961-0.2220154-0.4202576-0.4519653-0.6184845-0.6819153
		c-28.2440186-32.9936371-48.0830231-57.4395447-75.4310303-91.37677
		c-0.7294922-12.9643402-1.0545959-24.3903961-0.8404999-33.1839447
		c0.6660614-27.4352341,7.0253143-73.0681152,27.5700226-62.9424515c0.063446,0.03965,0.1268768,0.0792923,0.1903076,0.1268692
		c14.3440247,10.0305099,29.2351685,26.8643265,64.044632,69.8012543
		c13.2418518,16.3422089,33.2394409,42.6118317,53.4273376,66.4868317
		C288.9805298,227.3337097,259.9197998,256.4103088,249.3659363,245.1269531z"/>
	<path class="st9" d="M527.8494263,90.9266815c5.5584106,4.9716415,8.722168,14.6611938,10.4745483,24.9692307
		c-2.3391113-12.7819672-6.6526489-21.9561157-11.4974365-24.4141846
		c-9.0393066-4.5989685-40.4629822,31.4474411-63.1882324,59.6438828c-0.5312805,0.6581268-1.0625305,1.3162537-1.5858459,1.9743805
		c0.7294922-12.9643402,1.0545654-24.3903961,0.8404846-33.1839447
		c-0.6660461-27.4352341-7.017395-73.0681152-27.5700378-62.9424515
		C457.5407104,41.804924,506.7020874,71.9995422,527.8494263,90.9266815z"/>
	<path class="st9" d="M171.6909332,151.1256104c-22.7173309-28.1964417-54.1489029-64.2428513-63.1882553-59.6438828
		c-4.8130569,2.4422073-9.1107178,11.5212097-11.4577789,24.1763077
		c1.7682266-10.2208176,4.9240723-19.7993622,10.434906-24.7313538
		c21.1473312-18.9271393,70.3087234-49.1217575,92.5264969-33.9530869
		c-20.5447083-10.1256638-26.9039612,35.5072174-27.5700226,62.9424515
		c-0.2140961,8.7935486,0.1110077,20.2196045,0.8404999,33.1839447
		C172.7534485,152.441864,172.2221832,151.7837372,171.6909332,151.1256104z"/>
	<path class="st10" d="M540.1635742,136.2978973c0.1189575,16.0726013-5.4711914,35.4517059-18.4276123,51.4529572
		c-17.8725281,22.0750427-43.5236816,50.8899689-72.1483154,81.2273254
		c5.5663452-35.6340942,10.4904175-81.2431946,12.4648132-115.8781891c0.5233154-0.6581268,1.0545654-1.3162537,1.5858459-1.9743805
		c22.7252502-28.1964417,54.1489258-64.2428513,63.1882324-59.6438828
		c4.8447876,2.4580688,9.1583252,11.6322174,11.4974365,24.4141846c0.8167114,4.76548,1.3320923,9.6578293,1.649292,14.2885208
		c0,0.0237885,0.0079346,0.0475769,0.0079346,0.0713654C540.0842896,132.2301788,540.1477051,134.2442169,540.1635742,136.2978973z"
		/>
	<path class="st10" d="M173.2767792,153.0999908c1.9743805,34.6349945,6.8984528,80.2361603,12.464798,115.8623199
		c-28.6325531-30.3294067-54.2757721-59.1364136-72.1483154-81.2114563
		c-12.9564056-16.0012512-18.5465317-35.3803558-18.427597-51.4529572c0.0158615-2.0536804,0.0792923-4.0677185,0.182373-6.0341644
		c0-0.0237885,0.0079269-0.0555115,0.0079269-0.0792999c0.3171692-4.6386108,0.8325729-9.5388947,1.649292-14.3123093
		c0.0158539-0.0713654,0.0237808-0.1427231,0.0396423-0.2140884c2.3470612-12.655098,6.644722-21.7341003,11.4577789-24.1763077
		c9.0393524-4.5989685,40.4709244,31.4474411,63.1882553,59.6438828
		C172.2221832,151.7837372,172.7534485,152.441864,173.2767792,153.0999908z"/>
</g>
</svg>
